<svg width="88" height="88" xmlns="http://www.w3.org/2000/svg" class="css-1j8o68f">

 <g>
  <title>background</title>
  <rect fill="none" id="canvas_background" height="90" width="90" y="-1" x="-1"/>
 </g>
 <g>
  <title>Layer 1</title>
  <g fill="#ff9de2" transform="matrix(1.57923, 0, 0, 1.57923, -0.191235, 2.61201)" id="SvgjsG1007">
   <g id="svg_1" fill-rule="evenodd" fill="none">
    <path id="svg_2" fill="#ff9de2" d="m25.3887,24.12028c0,0 4.88715,-4.71611 6.74539,-11.65117c1.85824,-6.93506 1.67428,-13.00997 -0.01609,-13.4629c-1.69037,-0.45294 -4.88715,4.71611 -6.74539,11.65117c-1.85824,6.93506 0.01609,13.4629 0.01609,13.4629zm3.45709,-1.56077c0,0 6.74068,0.83008 13.29966,-2.09016c6.55899,-2.92025 11.16431,-6.88628 10.45252,-8.48499c-0.71179,-1.5987 -6.74069,-0.83008 -13.29967,2.09017c-6.55899,2.92025 -10.45251,8.48498 -10.45251,8.48498zm3.43514,1.7656c0,0 3.49587,5.82279 9.83517,9.19345c6.3393,3.37067 12.29989,4.55797 13.12147,3.01281c0.82157,-1.54515 -3.49587,-5.82278 -9.83517,-9.19344c-6.3393,-3.37067 -13.12147,-3.01282 -13.12147,-3.01282zm0.74309,3.71958c0,0 -2.32513,6.38119 -0.95518,13.42898c1.36995,7.04779 4.19836,12.42724 5.91621,12.09333c1.71785,-0.33392 2.32513,-6.3812 0.95518,-13.42899c-1.36995,-7.04779 -5.91621,-12.09332 -5.91621,-12.09332zm-2.49309,2.94993c0,0 -6.45994,2.09643 -11.17025,7.51502c-4.71031,5.41859 -7.20803,10.95932 -5.88728,12.10743c1.32074,1.1481 6.45994,-2.09643 11.17025,-7.51502c4.71031,-5.41859 5.88728,-12.10743 5.88728,-12.10743zm-3.7914,-0.11268c0,0 -5.6946,-3.701 -12.86993,-3.95156c-7.17533,-0.25057 -13.05316,1.29524 -13.11423,3.04417c-0.06107,1.74894 5.6946,3.70099 12.86993,3.95156c7.17533,0.25057 13.11423,-3.04417 13.11423,-3.04417zm-2.3135,-3.09278c0,0 -0.58953,-6.76597 -4.80965,-12.57447c-4.22012,-5.8085 -9.05699,-9.4886 -10.47277,-8.45997c-1.41578,1.02862 0.58953,6.76596 4.80965,12.57447c4.22013,5.8085 10.47277,8.45997 10.47277,8.45997zm4.32732,1.77408c1.38071,0 2.5,-1.11929 2.5,-2.5c0,-1.38071 -1.11929,-2.5 -2.5,-2.5c-1.38071,0 -2.5,1.11929 -2.5,2.5c0,1.38071 1.11929,2.5 2.5,2.5z"/>
   </g>
  </g>
 </g>
</svg>