<?xml version="1.0" encoding="UTF-8"?>
<svg xmlns="http://www.w3.org/2000/svg" xmlns:xlink="http://www.w3.org/1999/xlink" width="369.79633096218646" height="91.80757299872893" viewBox="0 0 369.79633096218646 91.80757299872893" class="css-1j8o68f">
    <g id="SvgjsG1007" transform="matrix(1.5792285203933716,0,0,1.5792285203933716,-0.1912347030322188,2.612006187669383)" fill="#ff9de2">
        <g xmlns="http://www.w3.org/2000/svg" stroke="none" stroke-width="1" fill="none" fill-rule="evenodd">
            <path d="M24.7554817,26.0199381 C24.7554817,26.0199381 29.6426261,21.3038287 31.5008697,14.3687691 C33.3591133,7.43370937 33.1751471,1.35879999 31.4847769,0.905866658 C29.7944064,0.452934277 26.5976326,5.62197606 24.7393889,12.5570357 C22.8811453,19.4920954 24.7554817,26.0199381 24.7554817,26.0199381 Z M28.2125658,24.4591735 C28.2125658,24.4591735 34.9532507,25.2892542 41.512235,22.3690062 C48.0712192,19.4487583 52.6765368,15.4827253 51.9647477,13.8840208 C51.2529576,12.2853166 45.2240627,13.0539401 38.6650785,15.974188 C32.1060942,18.894436 28.2125658,24.4591735 28.2125658,24.4591735 Z M31.6477109,26.2247743 C31.6477109,26.2247743 35.1435785,32.0475552 41.4828791,35.4182212 C47.8221798,38.7888871 53.7827731,39.9761932 54.6043483,38.4310349 C55.4259227,36.8858762 51.1084808,32.608254 44.7691801,29.237588 C38.4298794,25.8669221 31.6477109,26.2247743 31.6477109,26.2247743 Z M32.3907986,29.9443491 C32.3907986,29.9443491 30.0656686,36.3255432 31.4356204,43.373334 C32.8055721,50.4211248 35.6339849,55.8005716 37.3518324,55.4666559 C39.0696798,55.1327392 39.6769624,49.0854618 38.3070106,42.037671 C36.9370589,34.9898803 32.3907986,29.9443491 32.3907986,29.9443491 Z M29.8977105,32.894278 C29.8977105,32.894278 23.437768,34.990706 18.7274596,40.4092959 C14.0171512,45.8278859 11.519434,51.3686238 12.8401757,52.5167271 C14.1609181,53.6648296 19.3001182,50.4202991 24.0104266,45.0017091 C28.720735,39.5831192 29.8977105,32.894278 29.8977105,32.894278 Z M26.1063097,32.781598 C26.1063097,32.781598 20.4117057,29.0806047 13.2363772,28.8300367 C6.06104881,28.5794687 0.183222358,30.1252772 0.122148238,31.8742111 C0.0610751001,33.6231451 5.81675233,35.5752045 12.9920808,35.8257725 C20.1674092,36.0763405 26.1063097,32.781598 26.1063097,32.781598 Z M23.7928102,29.6888181 C23.7928102,29.6888181 23.2032844,22.9228498 18.9831614,17.1143488 C14.7630384,11.3058477 9.92617335,7.62575202 8.51039361,8.65437621 C7.09461445,9.68300119 9.0999194,15.4203445 13.3200424,21.2288455 C17.5401654,27.0373465 23.7928102,29.6888181 23.7928102,29.6888181 Z M28.1201293,31.4629024 C29.5008412,31.4629024 30.6201293,30.3436143 30.6201293,28.9629024 C30.6201293,27.5821905 29.5008412,26.4629024 28.1201293,26.4629024 C26.7394174,26.4629024 25.6201293,27.5821905 25.6201293,28.9629024 C25.6201293,30.3436143 26.7394174,31.4629024 28.1201293,31.4629024 Z" fill="#ff9de2"></path>
        </g>
    </g>
    <g id="SvgjsG1008" transform="matrix(2.9466733932495117,0,0,2.9466733932495117,106.77119967599558,15.678191931914633)" fill="#8c82fc">
        <path d="M4.86 9.92 c0.16 -0.10666 0.38332 -0.21 0.66998 -0.31 s0.61 -0.15 0.97 -0.15 c0.30666 0 0.55666 0.01334 0.75 0.04 s0.29 0.03332 0.29 0.01998 l0 2.66 c-0.30666 -0.02666 -0.60666 -0.03332 -0.9 -0.01998 c-0.25334 0.02666 -0.51668 0.07 -0.79002 0.13 s-0.52334 0.17 -0.75 0.33 c-0.26666 0.18666 -0.45666 0.44 -0.57 0.76 s-0.17 0.76 -0.17 1.32 l0 5.32 l-3 0 l0 -7.94 l-1.62 0 l1.28 -2.54 l3.34 0 l0 0.78 c0.06666 -0.05334 0.12666 -0.10668 0.18 -0.16002 c0.05334 -0.04 0.10668 -0.08334 0.16002 -0.13 s0.10668 -0.08332 0.16002 -0.10998 z M12.68 9.44 c0.69334 0 1.3166 0.096622 1.87 0.28996 s1.0167 0.50668 1.39 0.94002 s0.66 0.99 0.86 1.67 s0.3 1.5 0.3 2.46 l0 0.31 l-0.04 0.63 l-5.6 0 l-0.42 -0.06 c0.01334 0.38666 0.05668 0.69666 0.13002 0.93 s0.18 0.41668 0.32 0.55002 s0.31 0.22668 0.51 0.28002 s0.42666 0.08668 0.68 0.10002 c0.41334 0.02666 0.77 -0.03334 1.07 -0.18 s0.58334 -0.44666 0.85 -0.9 c0.41334 0.13334 0.79334 0.26 1.14 0.38 c0.29334 0.10666 0.56 0.2 0.8 0.28 s0.36 0.11334 0.36 0.1 c-0.48 1 -1.0633 1.73 -1.75 2.19 s-1.51 0.69 -2.47 0.69 c-0.70666 0 -1.3467 -0.09334 -1.92 -0.28 s-1.06 -0.49 -1.46 -0.91 s-0.71 -0.96666 -0.93 -1.64 s-0.33 -1.4967 -0.33 -2.47 c0 -0.94666 0.11 -1.7567 0.33 -2.43 s0.53 -1.2267 0.93 -1.66 s0.88666 -0.75334 1.46 -0.96 s1.2133 -0.31 1.92 -0.31 z M13.780000000000001 13.440000000000001 l0.30004 0.04 c-0.02666 -0.46666 -0.15 -0.83 -0.37 -1.09 s-0.56334 -0.39 -1.03 -0.39 c-0.53334 0 -0.91668 0.13 -1.15 0.39 s-0.37668 0.62334 -0.43002 1.09 c0.06666 -0.01334 0.12666 -0.02334 0.18 -0.03 s0.11334 -0.01 0.18 -0.01 l2.32 0 z M19.439999999999998 12.04 l-1.66 0 l1.32 -2.48 l2.9 0 l0.24 1.12 c0.30666 -0.34666 0.68332 -0.63 1.13 -0.85 s0.96332 -0.33 1.55 -0.33 c1.3733 0 2.3534 0.5 2.94 1.5 c0.33334 -0.46666 0.72668 -0.83332 1.18 -1.1 s1.02 -0.4 1.7 -0.4 c1.2 0 2.0766 0.31666 2.63 0.95 s0.83 1.6433 0.83 3.03 l0 6.52 l-3.04 0 l0 -5.98 c0 -0.64 -0.10334 -1.0933 -0.31 -1.36 s-0.56332 -0.4 -1.07 -0.4 c-0.21334 0 -0.41 0.02334 -0.59 0.07 s-0.33334 0.13332 -0.46 0.25998 s-0.22666 0.3 -0.3 0.52 s-0.11 0.51 -0.11 0.87 l0 6.02 l-3.04 0 l0 -6.02 c0 -0.66666 -0.11666 -1.12 -0.35 -1.36 s-0.55668 -0.36 -0.97002 -0.36 c-0.2 0 -0.38666 0.02 -0.56 0.06 s-0.33 0.12 -0.47 0.24 s-0.25 0.29334 -0.33 0.52 s-0.12 0.52666 -0.12 0.9 l0 6.02 l-3.04 0 l0 -7.96 z M40 9.56 l0 10.44 l-3.02 0 l0 -7.22 l0.1 -0.72 l-1.72 0 l1.36 -2.5 l3.28 0 z M39.92 8.7 l-3 0 l0 -2.72 l3 0 l0 2.72 z M42.56 12.04 l-1.68 0 l1.32 -2.48 l2.9 0 l0.26 1.12 c0.33334 -0.36 0.73 -0.66 1.19 -0.9 s0.99 -0.36 1.59 -0.36 c1.2133 0 2.1134 0.32334 2.7 0.97 s0.88 1.67 0.88 3.07 l0 6.54 l-3.04 0 l0 -6.02 c0 -0.61334 -0.15 -1.0533 -0.45 -1.32 s-0.68334 -0.4 -1.15 -0.4 c-0.38666 0 -0.73332 0.13 -1.04 0.39 s-0.46 0.69 -0.46 1.29 l0 6.06 l-3.02 0 l0 -7.96 z M62.82 5.98 l0.000019531 13.74 c-0.48 0.10666 -0.94666 0.18666 -1.4 0.24 s-0.86668 0.09334 -1.24 0.12 s-0.69334 0.04 -0.96 0.04 l-0.54 0 c-0.90666 0 -1.67 -0.14 -2.29 -0.42 s-1.12 -0.66 -1.5 -1.14 s-0.65666 -1.0367 -0.83 -1.67 s-0.26 -1.31 -0.26 -2.03 c0 -0.92 0.11666 -1.71 0.35 -2.37 s0.56 -1.2033 0.98 -1.63 s0.92 -0.74332 1.5 -0.94998 s1.2233 -0.31 1.93 -0.31 c0.12 0 0.25666 0.01 0.41 0.03 s0.3 0.04334 0.44 0.07 s0.27 0.05666 0.39 0.09 s0.21334 0.07 0.28 0.11 l0 -1.18 l0.06 -0.26 l-1.8 0 l1.34 -2.48 l3.14 0 z M59 17.44 c0.2 0 0.39334 -0.0066602 0.58 -0.02 s0.35332 -0.03334 0.49998 -0.06 l0 -5.12 c-0.09334 -0.01334 -0.2 -0.03334 -0.32 -0.06 c-0.10666 -0.02666 -0.23 -0.04666 -0.37 -0.06 s-0.29666 -0.02 -0.47 -0.02 c-0.62666 0 -1.1533 0.21334 -1.58 0.64 s-0.64 1.1333 -0.64 2.12 c0 0.49334 0.06 0.90668 0.18 1.24 s0.28334 0.6 0.49 0.8 s0.45 0.34 0.73 0.42 s0.58 0.12 0.9 0.12 z M65.89999999999999 12.059999999999999 l-1.56 0.000039062 l0 -2.52 l1.56 0 l0 -0.34 c0.02666 -0.49334 0.12666 -0.96668 0.3 -1.42 s0.43334 -0.83334 0.78 -1.14 c0.72 -0.72 1.7067 -1.08 2.96 -1.08 c0.36 0 0.69666 0.02334 1.01 0.07 s0.69668 0.14332 1.15 0.28998 l-0.2 0.34 l-0.44 0.74 l-0.44 0.74 l-0.2 0.34 l-0.5 0 c-0.42666 0 -0.76666 0.08666 -1.02 0.26 s-0.38 0.46 -0.38 0.86 l0 0.34 l2.6 0 l-1.36 2.52 l-1.32 0 l0.08 0.56 l0 7.38 l-3.02 0 l0 -7.94 z M72.85999999999999 9.56 l3.04 -0.000039062 l0 5.44 c0 0.46666 0.04 0.85666 0.12 1.17 s0.2 0.56 0.36 0.74 s0.35666 0.30666 0.59 0.38 s0.51 0.11 0.83 0.11 c0.38666 0 0.73332 -0.02 1.04 -0.06 l-0.04 -0.36 l0 -7.42 l3.04 0 l0 9.88 c-0.49334 0.17334 -1.0833 0.32668 -1.77 0.46002 s-1.39 0.2 -2.11 0.2 c-0.68 0 -1.33 -0.05334 -1.95 -0.16 s-1.1633 -0.33332 -1.63 -0.67998 s-0.83666 -0.85 -1.11 -1.51 s-0.41 -1.55 -0.41 -2.67 l0 -5.52 z M84.08 5.539999999999999 l3.02 0.000019531 l0 10.3 c0 0.34666 0.02 0.62666 0.06 0.84 s0.10334 0.38 0.19 0.5 s0.19666 0.2 0.33 0.24 s0.29334 0.06 0.48 0.06 c0.09334 0 0.2 -0.0033398 0.32 -0.01 s0.32 -0.03666 0.6 -0.09 l0.18 2.5 c-0.34666 0.10666 -0.67 0.17332 -0.97 0.19998 s-0.57 0.04 -0.81 0.04 c-1.0667 0 -1.9 -0.29 -2.5 -0.87 s-0.9 -1.5233 -0.9 -2.83 l0 -10.88 z"></path>
    </g>
</svg>
