<?xml version="1.0" standalone="no"?>
<!DOCTYPE svg PUBLIC "-//W3C//DTD SVG 20010904//EN"
 "http://www.w3.org/TR/2001/REC-SVG-20010904/DTD/svg10.dtd">
<svg version="1.0" xmlns="http://www.w3.org/2000/svg"
 width="700.000000pt" height="700.000000pt" viewBox="0 0 700.000000 700.000000"
 preserveAspectRatio="xMidYMid meet">
<metadata>
Created by potrace 1.11, written by Peter Selinger 2001-2013
</metadata>
<g transform="translate(0.000000,700.000000) scale(0.100000,-0.100000)"
fill="#000000" stroke="none">
<path d="M3915 6899 c-171 -92 -417 -497 -595 -979 -102 -277 -192 -609 -215
-795 -4 -28 -8 -57 -10 -65 -28 -108 -27 -676 1 -875 3 -22 7 -51 9 -65 18
-132 59 -337 69 -348 6 -5 28 17 130 133 297 337 577 838 692 1235 46 159 99
376 110 450 2 14 12 75 22 135 11 61 23 135 26 166 4 31 9 66 11 78 24 127 24
652 0 692 -2 3 -7 20 -10 37 -10 61 -48 145 -79 180 -41 45 -102 53 -161 21z"/>
<path d="M1160 5955 c-35 -12 -66 -52 -76 -97 -6 -32 -6 -136 1 -173 19 -104
67 -268 110 -370 9 -22 24 -58 33 -80 32 -78 180 -361 242 -465 74 -123 224
-349 289 -435 294 -388 697 -723 1165 -970 l129 -68 -7 54 c-11 91 -23 156
-61 331 -58 268 -219 683 -357 920 -42 72 -114 190 -130 212 -336 474 -750
894 -1047 1063 -136 78 -223 101 -291 78z"/>
<path d="M6169 5386 c-2 -2 -35 -7 -72 -11 -37 -3 -76 -8 -85 -10 -9 -1 -37
-6 -62 -10 -119 -19 -390 -90 -550 -145 -509 -173 -870 -364 -1191 -630 -203
-168 -423 -391 -555 -562 -37 -48 -41 -57 -27 -61 61 -17 552 -11 664 8 13 2
49 6 79 9 214 22 550 105 780 194 346 133 846 417 1089 617 73 60 181 158 217
196 111 120 167 248 133 307 -18 32 -69 68 -118 83 -34 10 -293 24 -302 15z"/>
<path d="M4050 3729 c0 -6 14 -31 32 -57 222 -326 540 -652 861 -883 363 -260
975 -531 1422 -629 140 -30 183 -35 325 -35 138 0 183 14 224 69 124 166 -328
636 -986 1026 -205 122 -189 113 -314 175 -222 110 -549 222 -754 260 -14 3
-35 7 -48 9 -57 12 -272 46 -322 51 -30 3 -71 8 -91 11 -81 11 -349 13 -349 3z"/>
<path d="M3518 3696 c-90 -24 -159 -83 -205 -175 -36 -72 -38 -182 -5 -253 28
-60 94 -129 152 -159 66 -34 206 -34 270 0 61 32 117 86 148 146 23 43 27 63
27 135 0 70 -4 94 -24 134 -66 135 -224 209 -363 172z"/>
<path d="M1548 3415 c-2 -1 -97 -5 -213 -9 -115 -3 -221 -8 -235 -10 -14 -3
-52 -7 -85 -10 -506 -49 -903 -194 -931 -340 -16 -87 73 -176 261 -261 203
-93 609 -191 910 -220 28 -3 66 -7 85 -10 202 -27 748 -27 850 0 8 2 40 7 70
10 30 4 73 10 95 15 22 5 55 11 72 15 100 17 316 76 468 128 101 35 251 93
270 105 5 4 12 7 15 7 3 0 41 18 84 39 l80 38 -50 30 c-123 78 -448 225 -629
286 -230 77 -460 133 -655 157 -25 3 -61 8 -80 10 -19 3 -105 7 -190 10 -85 4
-163 8 -172 9 -9 2 -18 3 -20 1z"/>
<path d="M4125 3248 c-28 -93 -39 -131 -64 -238 -17 -69 -33 -138 -36 -155
-15 -92 -46 -312 -54 -390 -9 -91 -7 -579 2 -625 3 -14 9 -47 12 -75 4 -27 9
-66 11 -85 6 -46 30 -164 56 -275 82 -357 195 -686 318 -929 189 -374 363
-502 472 -347 59 83 90 199 118 433 8 72 5 551 -4 638 -4 41 -10 85 -22 190
-9 76 -16 119 -34 225 -10 61 -22 126 -25 145 -3 19 -11 53 -16 75 -6 22 -13
48 -15 59 -12 63 -98 329 -131 406 -3 8 -7 17 -8 20 0 3 -11 27 -23 54 -12 27
-22 51 -22 53 0 6 -94 192 -137 272 -82 151 -224 365 -336 507 -44 55 -55 63
-62 42z"/>
<path d="M3716 2859 c-217 -85 -512 -245 -715 -386 -251 -175 -455 -363 -651
-598 -430 -516 -726 -1064 -714 -1323 5 -120 67 -163 203 -138 371 68 1173
780 1527 1356 107 174 239 439 290 580 87 246 173 534 162 545 -2 2 -48 -14
-102 -36z"/>
</g>
</svg>
